<svg id="Layer_1" data-name="Layer 1" xmlns="http://www.w3.org/2000/svg" viewBox="0 0 70.25 70.23"><defs><style>.cls-1{fill:#532e70;}.cls-2{fill:#fff;}.cls-3{fill:none;stroke:#fff;stroke-miterlimit:10;stroke-width:0.1px;}</style></defs><title>mail</title><path class="cls-1" d="M70.25,35.11A35.13,35.13,0,1,1,35.13,0,35.12,35.12,0,0,1,70.25,35.11"/><path class="cls-2" d="M15.53,24.61l1,.75,1.17.93L19,27.35l1.49,1.18,1.59,1.26,1.66,1.31,1.68,1.34,1.67,1.32L28.71,35l1.53,1.21,1.4,1.1,1.23,1,1,.81.78.62.43.33.42-.33.78-.62,1-.81,1.23-1,1.4-1.1L41.5,35l1.62-1.28,1.67-1.32,1.68-1.34,1.66-1.31,1.59-1.26c.5-.39,1-.78,1.49-1.18l1.35-1.06,1.17-.93,1-.75.69-.54.16-.14H14.68l.16.14.69.54"/><path class="cls-3" d="M15.53,24.61l1,.75,1.17.93L19,27.35l1.49,1.18,1.59,1.26,1.66,1.31,1.68,1.34,1.67,1.32L28.71,35l1.53,1.21,1.4,1.1,1.23,1,1,.81.78.62.43.33.42-.33.78-.62,1-.81,1.23-1,1.4-1.1L41.5,35l1.62-1.28,1.67-1.32,1.68-1.34,1.66-1.31,1.59-1.26c.5-.39,1-.78,1.49-1.18l1.35-1.06,1.17-.93,1-.75.69-.54.16-.14H14.68l.16.14Z"/><path class="cls-2" d="M56.2,25l0,0,0,0,0,0,0,0,0,0,0,0,0,0,0,0,0,0,0,0,0,0,0,0,0,0,0,0,0,0,0,0,0,0,0,0,0,0,0,0-.05,0,0,0,0,0-.05,0,0,0,0,0-.05.05,0,0-.06,0,0,0-.05,0-.06.05-.05.05-.06.05-.06.05,0,0-.06.05-.06.05-.06.05-.06.05-.07.06-.06.05-.06.06-.06.05-.07.06-.07.06-.06,0-.07.06-.07.06-.07.06-.06.06-.07.06-.07.07-.08.06-.07.06-.07.06-.07.07-.08.06-.07.07-.08.06-.07.07-.08.06-.08.07-.07.07-.08.07-.08.06-.08.07-.08.07-.08.07-.08.07-.08.08-.08.07-.09.07-.08.07-.08.07-.09.08-.08.07-.09.07-.08.08-.09.07-.08.08-.09.07-.09.08-.08.08L51,29.5l-.09.08-.09.08-.09.07-.09.08-.09.08-.09.08-.09.08-.09.08-.09.08-.09.08-.1.08-.09.08-.09.08-.09.08-.1.08-.09.08-.09.08-.1.09-.09.08-.1.08-.09.08-.1.09-.09.08-.1.08-.09.09-.1.08-.1.08-.09.09-.1.08-.09.09-.1.08-.1.08-.1.09-.09.08-.1.09-.1.08-.09.09-.1.08-.1.09-.1.08-.1.09-.09.09L47,33l-.1.09-.1.08-.1.09-.09.08-.1.09-.1.08-.1.09-.1.09-.09.08-.1.09-.1.08-.1.09-.1.08-.1.09-.09.08-.1.09-.1.08-.1.09-.09.08-.1.09-.1.08-.1.09-.09.08-.1.09-.1.08-.09.09-.1.08-.1.09-.09.08-.1.08-.09.09-.1.08-.1.08-.09.09-.1.08-.09.08-.09.08-.1.08-.09.09-.1.08L43,36.5l-.09.08-.1.08-.09.08-.09.08-.09.08-.09.08-.09.08-.1.08-.08.08-.1.08-.08.08-.09.07-.09.08-.09.08-.09.07-.09.08-.08.08-.09.07-.09.08-.08.07-.09.08-.08.07-.09.08-.08.07-.09.07-.08.07-.08.08-.08.07-.09.07-.08.07-.08.07-.08.07-.08.07-.08.07-.07.07-.08.06-.08.07-.08.07-.07.06-.08.07-.07.06-.08.07-.07.06-.07.07-.07.06-.08.06-.07.06L39,40l-.07.06-.06.06-.07.06-.07.06-.07.06-.06.06-.07.05-.06.06-.06.06-.07,0-.06.05-.06.06-.06.05-.06,0-.06.05-.06,0-.06,0,0,.05-.06,0,0,.05-.06,0-.05,0,0,.05,0,0-.05,0,0,0-.05,0,0,0,0,.05,0,0-.05,0,0,0,0,0,0,0-.05,0,0,0,0,0,0,0,0,0,0,0,0,0,0,0,0,0,0,0,0,0,0,0,0,0,0,0,0,0,0,0,0,0,0,0,0,0,0,0,0,0,0,0h0v0h-.07l-.16,0H36a1.6,1.6,0,0,1-.72-.22L35.11,42l-.15.12a1.68,1.68,0,0,1-.73.22H34l-.16,0h-.06l0,0h0l0,0,0,0,0,0,0,0,0,0,0,0,0,0,0,0,0,0,0,0,0,0,0,0,0,0,0,0,0,0,0,0,0,0,0,0,0,0,0,0,0,0,0,0,0,0,0,0,0,0-.05,0,0,0,0-.05-.05,0,0,0,0,0-.05,0,0,0-.05-.05,0,0-.06,0,0-.05-.06,0,0-.05-.06,0-.06,0-.06-.05-.06,0L32,40.66l-.06-.06-.06-.05-.06,0-.07-.06-.06-.06-.07-.05-.06-.06-.07-.06-.07-.06-.06-.06L31.27,40,31.2,40l-.07-.06-.07-.06L31,39.79l-.07-.06-.07-.07-.07-.06-.08-.07-.07-.06-.08-.07-.07-.06-.08-.07-.08-.07-.07-.06-.08-.07L30.08,39,30,38.93l-.08-.07-.08-.07-.08-.07-.08-.07-.09-.07-.08-.08-.08-.07-.09-.07-.08-.07-.08-.08-.09-.07L29,38.06,28.92,38l-.09-.08-.08-.07-.09-.08-.09-.08-.09-.07-.09-.08-.08-.08-.09-.07-.09-.08L28,37.22,28,37.14l-.09-.08-.1-.08-.09-.08-.09-.08-.09-.08-.09-.08-.1-.08-.09-.08-.09-.08-.1-.08-.09-.09-.09-.08-.1-.08L26.65,36l-.1-.08-.09-.09-.1-.08-.09-.08-.1-.09-.1-.08L26,35.43l-.1-.09-.09-.08-.1-.09-.1-.08-.1-.09-.09-.08-.1-.09-.1-.08-.09-.09-.1-.08-.1-.09-.1-.08-.1-.09-.09-.08-.1-.09-.1-.08-.1-.09-.1-.08-.09-.09-.1-.08-.1-.09-.1-.09-.1-.08-.09-.09-.1-.08-.1-.09-.1-.08-.1-.09-.1-.08-.09-.09-.1-.09-.1-.08-.1-.09-.09-.08-.1-.09-.1-.08-.1-.09-.09-.08-.1-.09-.1-.08-.1-.08-.09-.09-.1-.08-.09-.09-.1-.08-.1-.08-.09-.09-.1-.08-.09-.08-.1-.09L21,31.1l-.1-.08-.09-.08-.1-.09-.09-.08-.09-.08-.1-.08-.09-.08-.09-.08-.09-.08-.1-.08L20,30.21l-.09-.08-.09-.08L19.72,30l-.09-.08-.09-.08-.09-.08-.09-.07-.09-.08-.09-.08-.08-.07L19,29.35l-.09-.08-.09-.07-.08-.08-.09-.07L18.58,29l-.09-.07-.08-.07-.09-.08-.08-.07-.08-.07-.09-.07L18,28.47l-.08-.08-.08-.07-.08-.07-.08-.07-.08-.07-.08-.06L17.43,28l-.07-.07-.08-.07-.08-.06-.07-.07-.08-.06L17,27.58l-.08-.06-.07-.07-.07-.06-.07-.06-.07-.06-.07-.07-.07-.06-.07-.06L16.34,27,16.27,27l-.07-.06-.06,0-.07-.06L16,26.73l-.07-.05-.06-.06-.06-.05-.07-.06-.06-.05-.06-.05-.06-.05-.06-.05,0,0-.06-.05-.06-.05-.05-.05-.06-.05-.05,0,0,0-.05,0-.06,0,0-.05,0,0,0,0-.05,0-.05,0,0,0-.05,0,0,0,0,0,0,0-.05,0,0,0,0,0,0,0,0,0,0,0,0,0,0,0,0,0,0,0,0,0,0,0,0,0,0,0,0,0,0,0,0,0,0,0h0l0,0h0V47.77a.71.71,0,0,0,.71.71H55.51a.71.71,0,0,0,.71-.71V25Z"/><path class="cls-3" d="M56.2,25l0,0,0,0,0,0,0,0,0,0,0,0,0,0,0,0,0,0,0,0,0,0,0,0,0,0,0,0,0,0,0,0,0,0,0,0,0,0,0,0-.05,0,0,0,0,0-.05,0,0,0,0,0-.05.05,0,0-.06,0,0,0-.05,0-.06.05-.05.05-.06.05-.06.05,0,0-.06.05-.06.05-.06.05-.06.05-.07.06-.06.05-.06.06-.06.05-.07.06-.07.06-.06,0-.07.06-.07.06-.07.06-.06.06-.07.06-.07.07-.08.06-.07.06-.07.06-.07.07-.08.06-.07.07-.08.06-.07.07-.08.06-.08.07-.07.07-.08.07-.08.06-.08.07-.08.07-.08.07-.08.07-.08.08-.08.07-.09.07-.08.07-.08.07-.09.08-.08.07-.09.07-.08.08-.09.07-.08.08-.09.07-.09.08-.08.08L51,29.5l-.09.08-.09.08-.09.07-.09.08-.09.08-.09.08-.09.08-.09.08-.09.08-.09.08-.1.08-.09.08-.09.08-.09.08-.1.08-.09.08-.09.08-.1.09-.09.08-.1.08-.09.08-.1.09-.09.08-.1.08-.09.09-.1.08-.1.08-.09.09-.1.08-.09.09-.1.08-.1.08-.1.09-.09.08-.1.09-.1.08-.09.09-.1.08-.1.09-.1.08-.1.09-.09.09L47,33l-.1.09-.1.08-.1.09-.09.08-.1.09-.1.08-.1.09-.1.09-.09.08-.1.09-.1.08-.1.09-.1.08-.1.09-.09.08-.1.09-.1.08-.1.09-.09.08-.1.09-.1.08-.1.09-.09.08-.1.09-.1.08-.09.09-.1.08-.1.09-.09.08-.1.08-.09.09-.1.08-.1.08-.09.09-.1.08-.09.08-.09.08-.1.08-.09.09-.1.08L43,36.5l-.09.08-.1.08-.09.08-.09.08-.09.08-.09.08-.09.08-.1.08-.08.08-.1.08-.08.08-.09.07-.09.08-.09.08-.09.07-.09.08-.08.08-.09.07-.09.08-.08.07-.09.08-.08.07-.09.08-.08.07-.09.07-.08.07-.08.08-.08.07-.09.07-.08.07-.08.07-.08.07-.08.07-.08.07-.07.07-.08.06-.08.07-.08.07-.07.06-.08.07-.07.06-.08.07-.07.06-.07.07-.07.06-.08.06-.07.06L39,40l-.07.06-.06.06-.07.06-.07.06-.07.06-.06.06-.07.05-.06.06-.06.06-.07,0-.06.05-.06.06-.06.05-.06,0-.06.05-.06,0-.06,0,0,.05-.06,0,0,.05-.06,0-.05,0,0,.05,0,0-.05,0,0,0-.05,0,0,0,0,.05,0,0-.05,0,0,0,0,0,0,0-.05,0,0,0,0,0,0,0,0,0,0,0,0,0,0,0,0,0,0,0,0,0,0,0,0,0,0,0,0,0,0,0,0,0,0,0,0,0,0,0,0,0,0,0h0v0h-.07l-.16,0H36a1.6,1.6,0,0,1-.72-.22L35.11,42l-.15.12a1.68,1.68,0,0,1-.73.22H34l-.16,0h-.06l0,0h0l0,0,0,0,0,0,0,0,0,0,0,0,0,0,0,0,0,0,0,0,0,0,0,0,0,0,0,0,0,0,0,0,0,0,0,0,0,0,0,0,0,0,0,0,0,0,0,0,0,0-.05,0,0,0,0-.05-.05,0,0,0,0,0-.05,0,0,0-.05-.05,0,0-.06,0,0-.05-.06,0,0-.05-.06,0-.06,0-.06-.05-.06,0L32,40.66l-.06-.06-.06-.05-.06,0-.07-.06-.06-.06-.07-.05-.06-.06-.07-.06-.07-.06-.06-.06L31.27,40,31.2,40l-.07-.06-.07-.06L31,39.79l-.07-.06-.07-.07-.07-.06-.08-.07-.07-.06-.08-.07-.07-.06-.08-.07-.08-.07-.07-.06-.08-.07L30.08,39,30,38.93l-.08-.07-.08-.07-.08-.07-.08-.07-.09-.07-.08-.08-.08-.07-.09-.07-.08-.07-.08-.08-.09-.07L29,38.06,28.92,38l-.09-.08-.08-.07-.09-.08-.09-.08-.09-.07-.09-.08-.08-.08-.09-.07-.09-.08L28,37.22,28,37.14l-.09-.08-.1-.08-.09-.08-.09-.08-.09-.08-.09-.08-.1-.08-.09-.08-.09-.08-.1-.08-.09-.09-.09-.08-.1-.08L26.65,36l-.1-.08-.09-.09-.1-.08-.09-.08-.1-.09-.1-.08L26,35.43l-.1-.09-.09-.08-.1-.09-.1-.08-.1-.09-.09-.08-.1-.09-.1-.08-.09-.09-.1-.08-.1-.09-.1-.08-.1-.09-.09-.08-.1-.09-.1-.08-.1-.09-.1-.08-.09-.09-.1-.08-.1-.09-.1-.09-.1-.08-.09-.09-.1-.08-.1-.09-.1-.08-.1-.09-.1-.08-.09-.09-.1-.09-.1-.08-.1-.09-.09-.08-.1-.09-.1-.08-.1-.09-.09-.08-.1-.09-.1-.08-.1-.08-.09-.09-.1-.08-.09-.09-.1-.08-.1-.08-.09-.09-.1-.08-.09-.08-.1-.09L21,31.1l-.1-.08-.09-.08-.1-.09-.09-.08-.09-.08-.1-.08-.09-.08-.09-.08-.09-.08-.1-.08L20,30.21l-.09-.08-.09-.08L19.72,30l-.09-.08-.09-.08-.09-.08-.09-.07-.09-.08-.09-.08-.08-.07L19,29.35l-.09-.08-.09-.07-.08-.08-.09-.07L18.58,29l-.09-.07-.08-.07-.09-.08-.08-.07-.08-.07-.09-.07L18,28.47l-.08-.08-.08-.07-.08-.07-.08-.07-.08-.07-.08-.06L17.43,28l-.07-.07-.08-.07-.08-.06-.07-.07-.08-.06L17,27.58l-.08-.06-.07-.07-.07-.06-.07-.06-.07-.06-.07-.07-.07-.06-.07-.06L16.34,27,16.27,27l-.07-.06-.06,0-.07-.06L16,26.73l-.07-.05-.06-.06-.06-.05-.07-.06-.06-.05-.06-.05-.06-.05-.06-.05,0,0-.06-.05-.06-.05-.05-.05-.06-.05-.05,0,0,0-.05,0-.06,0,0-.05,0,0,0,0-.05,0-.05,0,0,0-.05,0,0,0,0,0,0,0-.05,0,0,0,0,0,0,0,0,0,0,0,0,0,0,0,0,0,0,0,0,0,0,0,0,0,0,0,0,0,0,0,0,0,0,0h0l0,0h0V47.77a.71.71,0,0,0,.71.71H55.51a.71.71,0,0,0,.71-.71V25Z"/></svg>