<svg id="Layer_1" data-name="Layer 1" xmlns="http://www.w3.org/2000/svg" viewBox="0 0 70.35 70.35"><defs><style>.cls-1{fill:#532e70;}.cls-2{fill:none;stroke:#fff;stroke-linecap:round;stroke-miterlimit:10;stroke-width:1.39px;}.cls-3{fill:#fff;}</style></defs><title>phone</title><path class="cls-1" d="M70.79,35.35A35.17,35.17,0,1,1,35.62.17,35.17,35.17,0,0,1,70.79,35.35" transform="translate(-0.45 -0.17)"/><path class="cls-2" d="M30.85,29.8a11,11,0,0,1,11,11" transform="translate(-0.45 -0.17)"/><path class="cls-2" d="M32.37,17.14A20.91,20.91,0,0,1,53.28,38.05" transform="translate(-0.45 -0.17)"/><path class="cls-2" d="M31.44,23.8A16.29,16.29,0,0,1,47.73,40.09" transform="translate(-0.45 -0.17)"/><path class="cls-3" d="M37.85,55.06A6.23,6.23,0,0,0,48.4,53.17l-8.77-7.68a6.26,6.26,0,0,0-3.09,3.9l-1.38-1L33.35,47l-1.91-1.44-2-1.49-2-1.49-2-1.48-1.88-1.41-1.76-1.33-1.6-1.2h0a6.22,6.22,0,0,0,5.22-4l-8.77-7.68a6.23,6.23,0,0,0-.83,10.46l-.55-.49,0,0h.06l0,0h0l0,0,0,0,0,0,0,0,0,0,0,0,0,0,0,0,0,0,0,0,0,0,0,0,0,0,0,0,0,0,0,0,0,0,0,0,0,0,.05,0,0,0,0,0,0,0,.05,0,.05,0,.05.05.05,0,0,0,.05,0,.06.05.05,0,.06,0,0,0,.06.05.06.06.06,0,.06,0,.06.06.07,0,.06.06.07.05.06.06.07.06.07.06.07.06.07.06.07.06.07.06.07.07.07.06.08.07.07.06.08.07.08.06.07.07.08.07.08.07.08.07.08.07.08.07.09.07.08.07.08.08.09.07.08.08.09.07.09.08.09.07.08.08.09.08.09.08.09.08.09.08.1.07.09.09.09.08.09.08.1.08.09.08.1.09.1.08.09.08.1.09.1.08.1.09.09.09.1.08.1.09.1.09.11.09.1.08.1.09.1.09.1.09.11.09.1.09.11.09.1.09.1.1.11.09.11.09.1.09.11.1.11.09.1.09.11.1.11.09.11.09.11.1.11.09.1.1.11.09.11.1L24,43l.11.09.11.1.12.1.11.09.11.1.11.1.11.09.11.1.12.1.11.1.11.1.11.09.12.1.11.1.11.1.11.1.12.1.11.09.11.1.12.1.11.1.12.1.11.1.11.1.12.1.11.1.11.1.12.1.11.09.12.1.11.1.11.1.12.1.11.1.11.1.12.1.11.1.11.09.12.1.11.1.11.1.12.1.11.1.11.1.11.09.12.1.11.1.11.1.11.09.11.1.11.1.11.09.11.1.11.1.12.09.11.1.1.09.11.1.11.09.11.1.11.09.11.1.11.09.1.1.11.09.11.09.1.09.11.1.11.09.1.09.1.09.11.09.1.09.11.09.1.09.1.09.11.09.1.09.1.09.1.09.1.08.1.09.1.09.1.08.09.09.1.08.1.09.09.08.1.08.09.09.1.08.09.08.1.08.09.08.09.08.09.08.09.08.09.08.09.08.09.07.09.08.09.08.08.07.09.08.08.07.09.07.08.08.08.07.09.07.08.07.08.07.08.07.08.07.07.07.08.06.08.07.07.07.08.06.07.07.07.06.07.06.08.06.07.07.07.06.06,0,.07.06.07.06.06.06.07.06.06,0,.06.05.06.06.07.05,0,0,.06.05.06,0,.06,0,.05.05.06,0,.05,0,0,.05,0,0,.05,0,0,0,.05,0,0,0,0,0,0,0,.05,0,0,0,0,0,0,0,0,0,0,0,0,0,0,0,0,0" transform="translate(-0.45 -0.17)"/></svg>