<svg id="Layer_1" data-name="Layer 1" xmlns="http://www.w3.org/2000/svg" viewBox="0 0 70.35 70.35"><defs><style>.cls-1{fill:#532e70;}.cls-2{fill:#fff;}.cls-3{fill:none;stroke:#fff;stroke-linecap:round;stroke-miterlimit:10;stroke-width:1.99px;}</style></defs><title>location</title><path class="cls-1" d="M70.35,35.17A35.18,35.18,0,1,1,35.17,0,35.18,35.18,0,0,1,70.35,35.17"/><polygon class="cls-2" points="47.63 32.69 28.33 40.22 28.73 41.04 34.92 52.5 47.63 32.69"/><path class="cls-2" d="M48.84,24.88a13.42,13.42,0,0,0-13.43-10.4A14.24,14.24,0,0,0,21.63,25.57a5.68,5.68,0,0,0,.8,4.29l2.68,5L49,25.68a5.32,5.32,0,0,0-.12-.8M35,28a4.42,4.42,0,1,1,4.42-4.42A4.42,4.42,0,0,1,35,28"/><line class="cls-3" x1="21.17" y1="39.77" x2="52.66" y2="27.34"/></svg>